<?xml version="1.0" encoding="utf-8"?>
<!-- Generator: Adobe Illustrator 25.4.1, SVG Export Plug-In . SVG Version: 6.00 Build 0)  -->
<svg version="1.1" id="Layer_1" xmlns="http://www.w3.org/2000/svg" xmlns:xlink="http://www.w3.org/1999/xlink" x="0px" y="0px"
	 viewBox="0 0 369.6 518.5" style="enable-background:new 0 0 369.6 518.5;" xml:space="preserve">
<style type="text/css">
	.st0{stroke:#000000;stroke-miterlimit:10;}
</style>
<path class="st0" d="M44.4,386.3c0-21.4,17.3-38.6,38.6-38.6c1.3,0,2.6,0.1,3.9,0.2c-5.5-2.9-11.7-4.6-18.3-4.6
	c-21.4,0-38.6,17.3-38.6,38.6c0,20,15.2,36.5,34.8,38.5C52.6,413.8,44.4,401,44.4,386.3z"/>
<g>
	<path class="st0" d="M216.8,144.3c9.2-16.4,14.6-33.9,16.6-51.5l-46.8-81.1l-85.3,147.8l-30.5,52.9
		C127.4,223.3,187.1,197.5,216.8,144.3z"/>
	<path class="st0" d="M271.8,159.5l-5-8.6c-2.9,10.9-7.2,21.7-12.9,32.1c-37,66.3-120.8,90.1-187.1,53.1c-2.5-1.4-4.9-2.8-7.3-4.4
		l-43.6,75.5h170.6h170.6L271.8,159.5z"/>
	<path class="st0" d="M29.7,197.4c-4.1-2.3-8-4.7-11.7-7.3c10.4,16.3,24.4,30.6,41.6,41.6l11.2-19.3
		C56.7,209.7,42.8,204.8,29.7,197.4z"/>
	<path class="st0" d="M212.5,3.2c16.9,26.5,24.3,58.2,20.8,89.6l33.5,58.1C281.3,95.9,260.3,36.5,212.5,3.2z"/>
</g>
<circle class="st0" cx="307.1" cy="378.5" r="43.5"/>
<path class="st0" d="M183.2,395c0-21.8,16-39.8,36.9-43c-8-8.6-19.3-14-32-14c-24,0-43.5,19.5-43.5,43.5c0,24,19.5,43.5,43.5,43.5
	c2.2,0,4.4-0.2,6.6-0.5C187.6,416.7,183.2,406.4,183.2,395z"/>
<path class="st0" d="M14.3,439.1c0,0,170,140.6,334.6,0"/>
</svg>
